<?xml version="1.0" encoding="utf-8"?>
<!-- Generator: Adobe Illustrator 23.0.3, SVG Export Plug-In . SVG Version: 6.00 Build 0)  -->
<svg version="1.1" id="Camada_1" xmlns="http://www.w3.org/2000/svg" xmlns:xlink="http://www.w3.org/1999/xlink" x="0px" y="0px"
	 viewBox="0 0 519.3 117.8" style="enable-background:new 0 0 519.3 117.8;" xml:space="preserve">
<style type="text/css">
	.st0{fill-rule:evenodd;clip-rule:evenodd;fill:#FFFFFF;}
	.st1{fill:#FFFFFF;}
</style>
<g>
	<path class="st0" d="M57.4-0.2C26.1-0.2,0.7,25.2,0.7,56.5v0c0,31.3,25.4,56.7,56.7,56.7h0c31.3,0,56.7-25.4,56.7-56.7V3.8v-4H57.4
		z M85.9,24.7h-33v26.9h25.2c2.9,0,5.4,2.3,5.4,5.3c0,3.1-2.4,5.4-5.4,5.4H52.9v30.9c0,3.2-2.4,5.7-5.7,5.7c-3.2,0-5.6-2.6-5.6-5.7
		V20c0-3.2,2.7-5.9,5.7-5.9h38.6c2.9,0,5.4,2.3,5.4,5.3C91.3,22.4,88.9,24.7,85.9,24.7z"/>
	<g>
		<path class="st1" d="M165.7,14.3c10.8,0,20.4,3.8,27.5,10.3c2.2,1.9,2.5,5.4,0.6,7.8c-2.2,2.4-5.6,2.5-7.9,0.6
			c-5.4-4.8-12.2-7.9-20.2-7.9c-17.3,0-30.7,14.2-30.7,31.7c0,17.5,13.4,31.6,30.7,31.6c7.9,0,14.8-3.1,20.2-7.9
			c2.3-1.9,5.8-1.8,7.9,0.6c1.9,2.4,1.6,5.9-0.6,7.8c-7.1,6.5-16.7,10.3-27.5,10.3c-23.4,0-41.9-19-41.9-42.5S142.3,14.3,165.7,14.3
			z"/>
		<path class="st1" d="M205.3,54.6c-1.4-2.3-1.1-5.2,1.2-7.1c6.2-5.3,13.8-6.8,19.9-6.8c16,0,25.6,8,25.6,23.5v7.2V93
			c0,3-2.4,5.5-5.5,5.5c-3,0-5.3-2.5-5.3-5.5v-2.3c-4.1,5.8-12.7,8.4-19.7,8.4c-12.7,0-21.1-6.5-21.1-17.4c0-9.6,6.5-17.6,24-17.6
			c5.2,0,10.3,1,16.8,3v-2.9c0-8.2-5.6-13.7-15.6-13.7c-4.4,0-9.4,1.8-13.2,4.9C210,57,206.8,56.7,205.3,54.6z M241.2,81.3l-0.1-5.5
			c-5.9-2-13.2-2.9-16.7-2.9c-11.5,0-13.7,5-13.7,8.8c0,4.2,3.5,7.7,11,7.7C227.5,89.4,236.9,87.2,241.2,81.3z"/>
		<path class="st1" d="M265.8,46.8c0-3,2.4-5.5,5.4-5.5c3.1,0,5.5,2.5,5.5,5.5v3.5c3-6.2,10.9-9.2,15.5-9.6c2.2-0.1,4.2,0,6.1,0.4
			c7.1,1.1,12,5,14.6,11.2c5.2-10,13.9-11.5,19.4-11.5c14,0,21.6,9.1,21.6,24.8V93c0,3-2.4,5.5-5.5,5.5c-3,0-5.4-2.5-5.4-5.5V66.2
			c0-9.2-4.8-14.9-12.8-14.9c-9.2-0.1-14.9,7-14.9,16.3V93c0,3-2.4,5.5-5.5,5.5c-3,0-5.4-2.5-5.4-5.5V66.1c0-9.2-4.8-15-12.1-15
			c-7.8,0-15.6,4.8-15.6,16.6V93c0,3-2.4,5.5-5.5,5.5c-3,0-5.4-2.5-5.4-5.5V46.8z"/>
		<path class="st1" d="M368.7,54.6c-1.4-2.3-1.1-5.2,1.2-7.1c6.2-5.3,13.8-6.8,19.9-6.8c16,0,25.6,8,25.6,23.5v7.2V93
			c0,3-2.4,5.5-5.5,5.5c-3,0-5.3-2.5-5.3-5.5v-2.3c-4.1,5.8-12.7,8.4-19.7,8.4c-12.7,0-21.1-6.5-21.1-17.4c0-9.6,6.5-17.6,24-17.6
			c5.2,0,10.3,1,16.8,3v-2.9c0-8.2-5.6-13.7-15.6-13.7c-4.4,0-9.4,1.8-13.2,4.9C373.3,57,370.1,56.7,368.7,54.6z M404.5,81.3
			l-0.1-5.5c-5.9-2-13.2-2.9-16.7-2.9c-11.5,0-13.7,5-13.7,8.8c0,4.2,3.5,7.7,11,7.7C390.9,89.4,400.2,87.2,404.5,81.3z"/>
		<path class="st1" d="M455.4,51.1c-10.8,0-15.4,11.5-15.4,26.4V93c0,3-2.4,5.5-5.5,5.5c-3,0-5.4-2.5-5.4-5.5V46.8
			c0-3,2.4-5.5,5.4-5.5c3.1,0,5.5,2.5,5.5,5.5v7.7c2.9-9.8,8.3-13.8,15.6-13.8c4.1,0,10.8,0.8,9.8,6.7c-0.6,3.5-3.7,4.2-7.6,3.8
			C457.1,51.1,456.1,51.1,455.4,51.1z"/>
		<path class="st1" d="M472.3,54.6c-1.4-2.3-1.1-5.2,1.2-7.1c6.2-5.3,13.8-6.8,19.9-6.8c16,0,25.6,8,25.6,23.5v7.2V93
			c0,3-2.4,5.5-5.5,5.5c-3,0-5.3-2.5-5.3-5.5v-2.3c-4.1,5.8-12.7,8.4-19.7,8.4c-12.7,0-21.1-6.5-21.1-17.4c0-9.6,6.5-17.6,24-17.6
			c5.2,0,10.3,1,16.8,3v-2.9c0-8.2-5.6-13.7-15.6-13.7c-4.4,0-9.4,1.8-13.2,4.9C477,57,473.8,56.7,472.3,54.6z M508.2,81.3l-0.1-5.5
			c-5.9-2-13.2-2.9-16.7-2.9c-11.5,0-13.7,5-13.7,8.8c0,4.2,3.5,7.7,11,7.7C494.5,89.4,503.9,87.2,508.2,81.3z"/>
	</g>
</g>
</svg>
